# This file uses centimeters as units for non-parametric coordinates.

mtllib grass6.mtl
g default
v 0.004178 0.027464 0.009351
v 0.000000 0.000000 0.000000
v -0.009567 0.027464 -0.003657
v 0.003641 0.122496 0.015140
v -0.011074 0.121409 0.011702
v -0.015318 0.122496 -0.002802
v -0.005847 0.243986 0.027558
v -0.021757 0.242899 0.022990
v -0.027194 0.243986 0.007357
v -0.015650 0.365476 0.039678
v -0.032439 0.364389 0.034278
v -0.038756 0.365476 0.017812
v -0.033296 0.489388 0.058685
v -0.050002 0.486769 0.052837
v -0.056761 0.489388 0.036479
v -0.065449 0.615714 0.089453
v -0.079917 0.611310 0.084448
v -0.085711 0.615714 0.070277
v -0.112822 0.737314 0.132565
v -0.122213 0.730722 0.129142
v -0.126148 0.737314 0.119954
v -0.162726 0.782273 0.178321
v -0.186821 0.790585 0.197414
v -0.169085 0.782273 0.172303
v -0.009462 0.027601 -0.002797
v 0.000000 0.000000 0.000000
v 0.009462 0.027601 -0.002797
v -0.013051 0.122740 -0.003491
v 0.000000 0.121965 -0.011147
v 0.013051 0.122740 -0.003491
v -0.014695 0.244763 -0.014066
v 0.000000 0.243988 -0.021721
v 0.014695 0.244763 -0.014066
v -0.015906 0.366786 -0.024640
v 0.000000 0.366010 -0.032295
v 0.015906 0.366786 -0.024640
v -0.016153 0.491652 -0.045499
v 0.000000 0.489331 -0.052836
v 0.016153 0.491652 -0.045499
v -0.013949 0.612921 -0.080173
v 0.000000 0.609668 -0.087147
v 0.013949 0.612921 -0.080173
v -0.009174 0.734849 -0.131239
v 0.000000 0.730369 -0.137495
v 0.009174 0.734849 -0.131239
v -0.004378 0.799657 -0.178934
v 0.000000 0.825798 -0.196589
v 0.004378 0.799657 -0.178934
v 0.004285 0.018002 -0.004801
v 0.000000 0.000000 0.000000
v -0.000987 0.018002 0.006359
v 0.005695 0.080053 -0.006724
v 0.006574 0.079547 0.003105
v -0.001577 0.080053 0.008669
v 0.012388 0.159638 -0.004748
v 0.012810 0.159132 0.006051
v 0.004201 0.159638 0.012584
v 0.018962 0.239222 -0.002516
v 0.019046 0.238716 0.008996
v 0.010100 0.239222 0.016244
v 0.031332 0.320662 0.003148
v 0.031159 0.319147 0.014718
v 0.022333 0.320662 0.022200
v 0.051166 0.399754 0.014107
v 0.051393 0.397633 0.024276
v 0.043395 0.399754 0.030559
v 0.079951 0.479278 0.031148
v 0.081085 0.476355 0.038301
v 0.074840 0.479278 0.041969
v 0.106743 0.521546 0.047263
v 0.115935 0.538595 0.054763
v 0.104304 0.521546 0.052426
v 0.007157 0.022170 0.000594
v 0.000000 0.000000 0.000000
v -0.004849 0.022170 0.005298
v 0.010782 0.098880 0.003139
v 0.004745 0.098003 0.012109
v -0.005779 0.098880 0.009628
v 0.016401 0.196949 0.014411
v 0.009322 0.196071 0.023789
v -0.002245 0.196949 0.021717
v 0.021747 0.295017 0.025790
v 0.013898 0.294139 0.035470
v 0.001563 0.295017 0.033699
v 0.029541 0.395040 0.045220
v 0.021423 0.392926 0.054674
v 0.009044 0.395040 0.053252
v 0.041232 0.497012 0.079174
v 0.034240 0.493457 0.087384
v 0.023532 0.497012 0.086109
v 0.057014 0.595169 0.128368
v 0.052362 0.589848 0.133632
v 0.045373 0.595169 0.132930
v 0.073859 0.631460 0.180319
v 0.080043 0.638170 0.204277
v 0.068304 0.631460 0.182495
vt 0.616133 0.010101
vt 0.646436 0.010101
vt 0.646436 0.150072
vt 0.616133 0.150072
vt 0.676739 0.010101
vt 0.676739 0.150072
vt 0.646436 0.290043
vt 0.616133 0.290043
vt 0.676739 0.290043
vt 0.646436 0.430014
vt 0.616133 0.430014
vt 0.676739 0.430014
vt 0.646436 0.569986
vt 0.616133 0.569986
vt 0.676739 0.569986
vt 0.646436 0.709957
vt 0.616133 0.709957
vt 0.676739 0.709957
vt 0.646436 0.849928
vt 0.616133 0.849928
vt 0.676739 0.849928
vt 0.646436 0.989899
vt 0.616133 0.989899
vt 0.676739 0.989899
vt 0.218664 0.010101
vt 0.248967 0.010101
vt 0.248967 0.150072
vt 0.218664 0.150072
vt 0.279270 0.010101
vt 0.279270 0.150072
vt 0.248967 0.290043
vt 0.218664 0.290043
vt 0.279270 0.290043
vt 0.248967 0.430014
vt 0.218664 0.430014
vt 0.279270 0.430014
vt 0.248967 0.569986
vt 0.218664 0.569986
vt 0.279270 0.569986
vt 0.248967 0.709957
vt 0.218664 0.709957
vt 0.279270 0.709957
vt 0.248967 0.849928
vt 0.218664 0.849928
vt 0.279270 0.849928
vt 0.248967 0.989899
vt 0.218664 0.989899
vt 0.279270 0.989899
vt 0.520833 0.010101
vt 0.551136 0.010101
vt 0.551136 0.150072
vt 0.520833 0.150072
vt 0.581439 0.010101
vt 0.581439 0.150072
vt 0.551136 0.290043
vt 0.520833 0.290043
vt 0.581439 0.290043
vt 0.551136 0.430014
vt 0.520833 0.430014
vt 0.581439 0.430014
vt 0.551136 0.569986
vt 0.520833 0.569986
vt 0.581439 0.569986
vt 0.551136 0.709957
vt 0.520833 0.709957
vt 0.581439 0.709957
vt 0.551136 0.849928
vt 0.520833 0.849928
vt 0.581439 0.849928
vt 0.551136 0.989899
vt 0.520833 0.989899
vt 0.581439 0.989899
vt 0.720730 0.010101
vt 0.751033 0.010101
vt 0.751033 0.150072
vt 0.720730 0.150072
vt 0.781336 0.010101
vt 0.781336 0.150072
vt 0.751033 0.290043
vt 0.720730 0.290043
vt 0.781336 0.290043
vt 0.751033 0.430014
vt 0.720730 0.430014
vt 0.781336 0.430014
vt 0.751033 0.569986
vt 0.720730 0.569986
vt 0.781336 0.569986
vt 0.751033 0.709957
vt 0.720730 0.709957
vt 0.781336 0.709957
vt 0.751033 0.849928
vt 0.720730 0.849928
vt 0.781336 0.849928
vt 0.751033 0.989899
vt 0.720730 0.989899
vt 0.781336 0.989899
vn 0.454435 0.095948 -0.885597
vn 0.683913 0.099905 -0.722691
vn 0.682829 0.114538 -0.721544
vn 0.351281 0.105743 -0.930280
vn 0.859215 0.095948 -0.502536
vn 0.909513 0.105743 -0.402000
vn 0.681523 0.129960 -0.720165
vn 0.263176 0.114901 -0.957881
vn 0.941927 0.114901 -0.315550
vn 0.677637 0.167533 -0.716059
vn 0.288665 0.150424 -0.945540
vn 0.928200 0.150424 -0.340320
vn 0.662538 0.266270 -0.700103
vn 0.275144 0.239081 -0.931201
vn 0.914629 0.239081 -0.326029
vn 0.633230 0.388947 -0.669133
vn 0.200108 0.339860 -0.918941
vn 0.906520 0.339861 -0.250431
vn 0.538473 0.621516 -0.569003
vn -0.106071 0.452402 -0.885484
vn 0.889982 0.452403 0.057127
vn 0.393320 0.820098 -0.415619
vn -0.349106 0.488516 -0.799673
vn 0.817691 0.488516 0.304521
vn 0.278650 0.056901 0.958706
vn 0.000000 0.059247 0.998243
vn 0.000000 0.073932 0.997263
vn 0.384286 0.068255 0.920688
vn -0.278650 0.056901 0.958706
vn -0.384286 0.068255 0.920688
vn 0.000000 0.089419 0.995994
vn 0.467250 0.079057 0.880583
vn -0.467250 0.079057 0.880583
vn 0.000000 0.127191 0.991878
vn 0.440254 0.114202 0.890581
vn -0.440255 0.114202 0.890581
vn -0.000000 0.217631 0.976031
vn 0.442244 0.195192 0.875397
vn -0.442244 0.195192 0.875397
vn -0.000000 0.321266 0.946989
vn 0.501890 0.277873 0.819081
vn -0.501890 0.277873 0.819081
vn -0.000000 0.460948 0.887427
vn 0.538573 0.388385 0.747727
vn -0.538574 0.388385 0.747727
vn -0.000001 0.541716 0.840562
vn 0.525269 0.460966 0.715264
vn -0.525270 0.460965 0.715264
vn -0.985876 0.056901 -0.157514
vn -0.902613 0.059247 -0.426357
vn -0.901727 0.073932 -0.425938
vn -0.996618 0.068255 -0.045760
vn -0.747850 0.056901 -0.661425
vn -0.668355 0.068255 -0.740704
vn -0.900579 0.089419 -0.425396
vn -0.995790 0.079057 0.046385
vn -0.596658 0.079057 -0.798592
vn -0.896857 0.127191 -0.423638
vn -0.993300 0.114202 0.017705
vn -0.617228 0.114202 -0.778452
vn -0.882528 0.217631 -0.416870
vn -0.980421 0.195192 0.025989
vn -0.602649 0.195192 -0.773766
vn -0.856268 0.321266 -0.404466
vn -0.954974 0.277873 0.103974
vn -0.526253 0.277873 -0.803644
vn -0.802412 0.460948 -0.379027
vn -0.906125 0.388386 0.167614
vn -0.446070 0.388387 -0.806336
vn -0.760037 0.541716 -0.359011
vn -0.871090 0.460968 0.169445
vn -0.422403 0.460968 -0.780439
vn -0.645926 0.094481 -0.757531
vn -0.363004 0.099905 -0.926416
vn -0.362438 0.114309 -0.924972
vn -0.735560 0.102618 -0.669642
vn -0.040661 0.094481 -0.994696
vn 0.084821 0.102618 -0.991098
vn -0.361735 0.129958 -0.923179
vn -0.800627 0.110157 -0.588951
vn 0.187386 0.110157 -0.976090
vn -0.359669 0.167591 -0.917906
vn -0.778644 0.144920 -0.610501
vn 0.156615 0.144920 -0.976970
vn -0.351667 0.266181 -0.897484
vn -0.771699 0.230179 -0.592874
vn 0.163494 0.230179 -0.959316
vn -0.336166 0.388537 -0.857923
vn -0.792959 0.324451 -0.515701
vn 0.231523 0.324451 -0.917131
vn -0.287539 0.615488 -0.733823
vn -0.882679 0.413668 -0.223060
vn 0.496171 0.413669 -0.763343
vn -0.208764 0.820098 -0.532783
vn -0.899955 0.435176 0.026512
vn 0.678398 0.435177 -0.591943
s 1
g grass6 g_grassbase
usemtl mtl_grass2
f 1/1/1 2/2/2 5/3/3 4/4/4
f 2/2/2 3/5/5 6/6/6 5/3/3
f 4/4/4 5/3/3 8/7/7 7/8/8
f 5/3/3 6/6/6 9/9/9 8/7/7
f 7/8/8 8/7/7 11/10/10 10/11/11
f 8/7/7 9/9/9 12/12/12 11/10/10
f 10/11/11 11/10/10 14/13/13 13/14/14
f 11/10/10 12/12/12 15/15/15 14/13/13
f 13/14/14 14/13/13 17/16/16 16/17/17
f 14/13/13 15/15/15 18/18/18 17/16/16
f 16/17/17 17/16/16 20/19/19 19/20/20
f 17/16/16 18/18/18 21/21/21 20/19/19
f 19/20/20 20/19/19 23/22/22 22/23/23
f 20/19/19 21/21/21 24/24/24 23/22/22
s 2
f 25/25/25 26/26/26 29/27/27 28/28/28
f 26/26/26 27/29/29 30/30/30 29/27/27
f 28/28/28 29/27/27 32/31/31 31/32/32
f 29/27/27 30/30/30 33/33/33 32/31/31
f 31/32/32 32/31/31 35/34/34 34/35/35
f 32/31/31 33/33/33 36/36/36 35/34/34
f 34/35/35 35/34/34 38/37/37 37/38/38
f 35/34/34 36/36/36 39/39/39 38/37/37
f 37/38/38 38/37/37 41/40/40 40/41/41
f 38/37/37 39/39/39 42/42/42 41/40/40
f 40/41/41 41/40/40 44/43/43 43/44/44
f 41/40/40 42/42/42 45/45/45 44/43/43
f 43/44/44 44/43/43 47/46/46 46/47/47
f 44/43/43 45/45/45 48/48/48 47/46/46
s 3
f 49/49/49 50/50/50 53/51/51 52/52/52
f 50/50/50 51/53/53 54/54/54 53/51/51
f 52/52/52 53/51/51 56/55/55 55/56/56
f 53/51/51 54/54/54 57/57/57 56/55/55
f 55/56/56 56/55/55 59/58/58 58/59/59
f 56/55/55 57/57/57 60/60/60 59/58/58
f 58/59/59 59/58/58 62/61/61 61/62/62
f 59/58/58 60/60/60 63/63/63 62/61/61
f 61/62/62 62/61/61 65/64/64 64/65/65
f 62/61/61 63/63/63 66/66/66 65/64/64
f 64/65/65 65/64/64 68/67/67 67/68/68
f 65/64/64 66/66/66 69/69/69 68/67/67
f 67/68/68 68/67/67 71/70/70 70/71/71
f 68/67/67 69/69/69 72/72/72 71/70/70
s 4
f 73/73/73 74/74/74 77/75/75 76/76/76
f 74/74/74 75/77/77 78/78/78 77/75/75
f 76/76/76 77/75/75 80/79/79 79/80/80
f 77/75/75 78/78/78 81/81/81 80/79/79
f 79/80/80 80/79/79 83/82/82 82/83/83
f 80/79/79 81/81/81 84/84/84 83/82/82
f 82/83/83 83/82/82 86/85/85 85/86/86
f 83/82/82 84/84/84 87/87/87 86/85/85
f 85/86/86 86/85/85 89/88/88 88/89/89
f 86/85/85 87/87/87 90/90/90 89/88/88
f 88/89/89 89/88/88 92/91/91 91/92/92
f 89/88/88 90/90/90 93/93/93 92/91/91
f 91/92/92 92/91/91 95/94/94 94/95/95
f 92/91/91 93/93/93 96/96/96 95/94/94
